<svg id="svg" version="1.1" xmlns="http://www.w3.org/2000/svg" xmlns:xlink="http://www.w3.org/1999/xlink" width="400" height="400" viewBox="0, 0, 400,400"><g id="svgg"><path id="path0" d="M0.000 200.000 L 0.000 400.000 200.000 400.000 L 400.000 400.000 400.000 200.000 L 400.000 0.000 200.000 0.000 L 0.000 0.000 0.000 200.000 M193.451 103.039 C 195.131 103.490,195.200 104.335,195.200 124.543 C 195.200 143.419,195.182 143.869,194.384 144.725 L 193.569 145.600 173.861 145.600 C 157.475 145.600,154.022 145.504,153.376 145.032 C 152.629 144.486,152.596 143.737,152.489 124.887 C 152.373 104.455,152.451 103.396,154.078 103.085 C 155.469 102.819,192.471 102.776,193.451 103.039 M246.275 103.046 C 247.889 103.478,248.000 104.845,248.000 124.234 C 248.000 142.474,247.871 144.525,246.675 145.286 C 245.664 145.929,207.071 145.628,206.200 144.970 C 205.422 144.383,205.397 143.831,205.289 124.838 C 205.173 104.457,205.251 103.396,206.878 103.085 C 208.289 102.816,245.278 102.778,246.275 103.046 M158.267 109.067 C 158.120 109.213,158.000 116.143,158.000 124.467 L 158.000 139.600 173.600 139.600 L 189.200 139.600 189.200 124.200 L 189.200 108.800 173.867 108.800 C 165.433 108.800,158.413 108.920,158.267 109.067 M211.200 124.200 L 211.200 139.600 226.600 139.600 L 242.000 139.600 242.000 124.200 L 242.000 108.800 226.600 108.800 L 211.200 108.800 211.200 124.200 M175.440 115.106 C 176.294 115.676,176.800 117.169,176.800 119.118 L 176.800 121.089 179.230 121.309 C 184.906 121.824,184.810 127.200,179.125 127.200 L 176.800 127.200 176.800 129.226 C 176.800 135.088,171.393 135.685,170.838 129.884 L 170.600 127.400 168.800 127.295 C 165.811 127.119,165.183 126.852,164.621 125.514 C 163.510 122.874,165.211 121.200,169.005 121.200 L 170.690 121.200 170.905 118.524 C 171.171 115.216,173.254 113.646,175.440 115.106 M235.370 122.200 C 236.238 123.349,236.153 125.447,235.200 126.400 C 233.960 127.640,219.409 127.627,218.075 126.384 C 217.193 125.562,216.895 123.500,217.517 122.520 C 218.537 120.916,234.189 120.636,235.370 122.200 M194.436 156.744 C 195.165 157.645,195.200 158.582,195.194 177.144 C 195.188 197.195,195.189 197.170,193.726 197.940 C 192.312 198.684,154.403 198.583,153.376 197.832 C 152.583 197.252,151.911 162.900,152.600 158.126 C 152.963 155.608,152.682 155.639,174.336 155.724 L 193.671 155.800 194.436 156.744 M245.678 155.853 C 247.982 156.234,248.000 156.398,248.000 177.000 C 248.000 197.303,247.947 197.828,245.865 198.207 C 243.110 198.708,206.464 198.225,205.920 197.680 C 205.254 197.015,204.937 159.143,205.583 157.444 C 205.806 156.858,206.396 156.215,206.894 156.015 C 207.897 155.612,243.326 155.464,245.678 155.853 M158.182 162.101 C 158.077 162.377,158.037 169.352,158.095 177.601 L 158.200 192.600 173.700 192.705 L 189.200 192.809 189.200 177.205 L 189.200 161.600 173.787 161.600 C 161.803 161.600,158.332 161.712,158.182 162.101 M211.295 177.100 L 211.400 192.600 226.700 192.705 L 242.000 192.810 242.000 177.205 L 242.000 161.600 226.595 161.600 L 211.191 161.600 211.295 177.100 M171.463 170.862 L 173.551 172.925 175.808 170.862 C 180.585 166.496,184.388 170.323,179.942 175.024 L 177.884 177.200 179.942 179.376 C 182.310 181.880,182.470 182.791,180.831 184.431 C 179.242 186.020,178.690 185.920,176.237 183.600 C 173.715 181.214,173.726 181.216,171.978 183.034 C 169.843 185.256,168.659 185.754,167.248 185.025 C 164.950 183.837,165.003 181.803,167.400 179.241 C 168.390 178.183,169.200 177.148,169.200 176.942 C 169.200 176.735,168.390 175.772,167.400 174.800 C 165.206 172.647,164.963 170.959,166.654 169.629 C 168.258 168.367,169.175 168.602,171.463 170.862 M235.146 169.635 C 236.428 170.830,236.226 173.560,234.800 174.301 C 233.020 175.226,218.494 174.819,217.767 173.824 C 216.675 172.328,217.075 170.143,218.600 169.278 C 220.222 168.358,234.097 168.658,235.146 169.635 M235.111 180.223 C 235.770 180.685,236.000 181.247,236.000 182.400 C 236.000 185.033,235.434 185.200,226.511 185.200 C 217.913 185.200,217.200 184.986,217.200 182.400 C 217.200 179.814,217.913 179.600,226.511 179.600 C 232.843 179.600,234.381 179.711,235.111 180.223 M118.701 225.217 C 123.564 227.422,123.963 228.220,121.566 230.944 C 119.749 233.008,119.220 233.153,117.633 232.024 C 113.020 228.739,106.438 231.314,105.190 236.891 C 103.627 243.873,111.145 249.348,117.215 245.647 C 119.126 244.482,119.525 244.560,121.485 246.483 C 123.431 248.393,123.569 248.987,122.318 250.071 C 112.700 258.413,98.201 251.515,98.206 238.600 C 98.208 231.708,101.253 227.489,108.400 224.476 C 110.633 223.534,115.812 223.907,118.701 225.217 M253.920 224.342 C 254.285 224.573,254.404 225.495,254.320 227.436 L 254.200 230.200 251.200 230.400 L 248.200 230.600 248.094 241.655 L 247.988 252.710 247.094 252.950 C 245.738 253.313,243.374 253.246,242.232 252.812 L 241.213 252.425 241.106 241.512 L 241.000 230.600 238.217 230.480 C 236.686 230.414,235.201 230.167,234.917 229.931 C 234.256 229.383,234.228 225.132,234.880 224.480 C 235.440 223.920,253.053 223.792,253.920 224.342 M217.715 227.106 C 218.111 227.544,218.401 228.723,218.477 230.206 L 218.600 232.600 220.200 232.800 L 221.800 233.000 221.800 235.400 L 221.800 237.800 220.200 238.000 L 218.600 238.200 218.400 245.268 C 218.290 249.155,218.089 252.446,217.954 252.580 C 217.458 253.074,213.768 253.260,212.700 252.846 L 211.600 252.420 211.600 245.453 C 211.600 237.853,211.647 238.000,209.210 238.000 C 208.002 238.000,207.597 237.410,207.605 235.667 C 207.616 233.529,208.025 232.800,209.214 232.800 C 211.369 232.800,211.600 232.513,211.600 229.837 C 211.600 228.444,211.810 227.150,212.080 226.880 C 212.856 226.104,216.958 226.269,217.715 227.106 M140.400 233.270 C 148.643 236.809,148.741 248.840,140.556 252.461 C 130.654 256.841,121.521 245.838,127.500 236.732 C 130.157 232.685,135.621 231.219,140.400 233.270 M166.900 234.039 L 168.400 235.238 169.900 234.057 C 174.005 230.825,180.045 232.158,182.132 236.757 C 182.993 238.653,183.642 249.383,183.041 251.778 C 182.752 252.931,180.006 253.546,177.872 252.936 L 176.600 252.572 176.400 246.250 C 176.209 240.205,176.159 239.894,175.256 239.164 C 173.858 238.033,172.151 238.187,170.769 239.569 L 169.600 240.738 169.600 246.723 C 169.600 253.430,169.719 253.189,166.400 253.189 C 163.145 253.189,163.270 253.442,163.128 246.592 C 162.985 239.748,162.463 238.400,159.953 238.400 C 157.179 238.400,156.622 239.665,156.400 246.464 L 156.200 252.600 154.730 252.963 C 153.848 253.181,152.569 253.181,151.530 252.961 L 149.800 252.596 149.800 242.798 L 149.800 233.000 152.900 232.883 C 155.984 232.767,156.000 232.771,156.000 233.783 C 156.000 235.041,156.134 235.043,157.752 233.809 C 160.427 231.769,164.178 231.864,166.900 234.039 M199.311 232.824 C 202.792 233.791,205.600 237.846,205.600 241.907 C 205.600 245.192,205.584 245.200,198.691 245.200 C 193.242 245.200,192.752 245.259,192.872 245.900 C 193.214 247.738,197.281 248.436,200.290 247.173 C 202.551 246.225,205.037 249.338,203.285 250.923 C 199.419 254.421,192.039 253.796,188.295 249.653 C 181.296 241.905,189.097 229.988,199.311 232.824 M271.196 233.597 L 272.451 234.491 272.672 233.645 C 272.870 232.888,273.180 232.800,275.647 232.800 L 278.400 232.800 278.400 242.782 L 278.400 252.764 277.000 253.026 C 274.899 253.421,272.928 252.934,272.673 251.957 C 272.458 251.137,272.452 251.137,271.230 252.041 C 265.339 256.397,256.639 250.030,257.296 241.844 C 257.881 234.551,265.875 229.808,271.196 233.597 M290.183 235.000 C 290.957 236.210,291.680 237.200,291.791 237.200 C 291.901 237.200,292.649 236.210,293.453 235.000 L 294.913 232.800 298.257 232.800 C 302.453 232.800,302.455 232.824,298.800 238.145 C 295.651 242.730,295.639 242.771,296.953 244.527 C 301.942 251.191,302.571 252.586,300.750 252.950 C 296.984 253.703,295.470 253.153,293.558 250.338 C 291.727 247.642,291.758 247.640,289.983 250.570 C 288.533 252.962,286.491 253.681,283.005 253.027 C 281.185 252.686,281.224 252.401,283.548 249.028 C 284.620 247.472,286.044 245.393,286.712 244.407 L 287.929 242.613 284.964 238.296 C 281.152 232.745,281.148 232.800,285.388 232.800 L 288.775 232.800 290.183 235.000 M193.679 238.995 C 191.900 240.492,192.335 240.800,196.224 240.800 C 199.765 240.800,200.043 240.636,198.896 239.219 C 197.736 237.787,195.242 237.680,193.679 238.995 M133.411 239.709 C 129.516 243.604,134.530 249.731,138.724 246.202 C 141.666 243.727,140.261 239.027,136.427 238.513 C 134.989 238.320,134.676 238.444,133.411 239.709 M264.960 239.760 C 262.154 242.566,263.871 247.169,267.731 247.191 C 270.330 247.206,272.476 244.352,271.823 241.749 C 270.991 238.436,267.342 237.378,264.960 239.760 M67.361 277.758 C 69.791 278.773,70.688 281.306,69.425 283.587 C 68.944 284.457,68.969 284.689,69.639 285.541 C 72.785 289.540,66.393 294.965,61.574 292.386 C 60.439 291.779,60.370 277.771,61.500 277.476 C 63.014 277.080,66.093 277.228,67.361 277.758 M97.269 278.089 C 98.038 279.280,97.422 279.798,94.996 280.000 L 92.600 280.200 92.600 281.581 C 92.600 282.877,92.723 283.006,94.600 283.671 C 101.470 286.106,98.766 294.041,91.600 292.474 C 88.840 291.870,89.629 290.244,92.800 290.000 L 95.400 289.800 95.521 288.361 C 95.640 286.939,95.613 286.912,93.265 286.056 C 89.869 284.818,88.759 282.597,90.017 279.559 C 90.900 277.428,96.155 276.363,97.269 278.089 M134.273 277.977 C 138.412 279.856,138.846 289.317,134.912 291.894 C 133.484 292.830,128.165 292.907,127.592 292.000 C 126.897 290.901,127.103 278.554,127.829 277.829 C 128.708 276.949,132.185 277.029,134.273 277.977 M184.324 277.445 C 187.093 277.999,186.320 279.921,183.264 280.081 L 181.000 280.200 181.000 281.545 C 181.000 282.800,181.139 282.941,183.090 283.669 C 189.912 286.214,187.169 294.033,180.000 292.476 C 177.078 291.841,177.791 290.000,180.959 290.000 C 185.348 290.000,185.744 287.543,181.599 286.032 C 175.073 283.652,177.478 276.076,184.324 277.445 M219.965 278.308 C 222.895 280.480,222.761 289.896,219.773 291.855 C 217.850 293.114,214.655 292.839,213.093 291.279 C 211.370 289.557,210.915 282.045,212.391 279.677 C 213.919 277.226,217.606 276.560,219.965 278.308 M231.682 277.616 C 234.809 278.484,235.814 281.995,233.722 284.738 L 232.643 286.152 234.155 288.923 C 236.713 293.613,234.150 294.058,231.411 289.400 C 229.142 285.539,228.276 285.538,228.000 289.396 C 227.790 292.339,227.132 293.105,225.781 291.984 C 224.893 291.247,224.935 278.722,225.829 277.829 C 226.559 277.098,229.440 276.993,231.682 277.616 M249.124 277.445 C 251.893 277.999,251.120 279.921,248.064 280.081 L 245.800 280.200 245.800 281.545 C 245.800 282.800,245.939 282.941,247.890 283.669 C 254.712 286.214,251.969 294.033,244.800 292.476 C 241.878 291.841,242.591 290.000,245.759 290.000 C 250.148 290.000,250.544 287.543,246.399 286.032 C 239.873 283.652,242.278 276.076,249.124 277.445 M287.473 277.977 C 291.515 279.812,292.044 288.970,288.271 291.764 C 286.834 292.827,281.424 292.998,280.792 292.000 C 280.097 290.902,280.303 278.554,281.029 277.829 C 281.908 276.949,285.385 277.029,287.473 277.977 M338.869 278.089 C 339.638 279.280,339.022 279.798,336.596 280.000 L 334.200 280.200 334.200 281.581 C 334.200 282.877,334.323 283.006,336.200 283.671 C 343.070 286.106,340.366 294.041,333.200 292.474 C 330.440 291.870,331.229 290.244,334.400 290.000 L 337.000 289.800 337.121 288.361 C 337.240 286.939,337.213 286.912,334.865 286.056 C 331.469 284.818,330.359 282.597,331.617 279.559 C 332.500 277.428,337.755 276.363,338.869 278.089 M74.662 277.906 C 74.916 278.068,75.615 279.427,76.215 280.927 C 77.445 284.000,77.442 284.001,78.973 280.300 C 79.987 277.848,80.196 277.600,81.245 277.600 C 82.838 277.600,82.758 278.289,80.600 283.157 C 79.126 286.480,78.800 287.646,78.800 289.585 C 78.800 292.148,78.483 292.608,76.977 292.230 C 76.073 292.003,76.000 291.799,75.994 289.492 C 75.988 287.404,75.696 286.357,74.194 283.035 C 71.927 278.025,72.088 276.268,74.662 277.906 M111.000 278.800 C 111.000 279.689,110.800 279.822,109.200 280.000 L 107.400 280.200 107.289 286.095 C 107.179 291.955,107.173 291.992,106.212 292.233 C 104.514 292.659,104.400 292.264,104.400 285.976 L 104.400 280.000 102.624 280.000 C 100.684 280.000,100.212 279.622,100.605 278.385 C 100.847 277.622,101.145 277.583,105.931 277.688 L 111.000 277.800 111.000 278.800 M116.157 278.233 C 116.291 278.581,116.406 281.056,116.413 283.733 C 116.427 289.168,116.730 290.000,118.695 290.000 C 120.696 290.000,120.980 289.235,121.200 283.240 L 121.400 277.800 122.400 277.800 L 123.400 277.800 123.504 283.600 C 123.597 288.775,123.524 289.538,122.823 290.680 C 121.246 293.246,116.544 293.250,114.647 290.685 C 113.627 289.308,113.110 279.273,114.003 278.197 C 114.653 277.414,115.851 277.434,116.157 278.233 M148.888 278.300 C 149.256 279.717,148.803 280.000,146.167 280.000 L 143.600 280.000 143.600 281.780 L 143.600 283.560 145.900 283.680 C 148.055 283.792,148.200 283.863,148.200 284.800 C 148.200 285.737,148.055 285.808,145.900 285.920 L 143.600 286.040 143.600 288.020 L 143.600 290.000 145.951 290.000 C 148.603 290.000,149.708 290.706,148.788 291.814 C 148.384 292.301,147.524 292.405,144.639 292.314 L 141.000 292.200 140.890 285.415 C 140.829 281.683,140.869 278.398,140.977 278.115 C 141.317 277.230,148.655 277.402,148.888 278.300 M157.115 280.500 C 157.770 282.095,158.551 284.120,158.852 285.000 C 159.395 286.587,159.402 286.564,159.649 282.200 C 159.946 276.959,159.766 277.520,161.100 277.673 L 162.200 277.800 162.200 285.000 L 162.200 292.200 160.874 292.327 C 159.031 292.504,158.729 292.139,156.960 287.590 L 155.400 283.578 155.200 287.647 C 154.991 291.898,154.550 292.850,153.054 292.276 C 152.384 292.019,152.027 279.838,152.643 278.233 C 153.413 276.226,155.873 277.473,157.115 280.500 M175.800 278.800 C 175.800 279.689,175.600 279.822,174.000 280.000 L 172.200 280.200 172.089 286.095 C 171.979 291.955,171.973 291.992,171.012 292.233 C 169.314 292.659,169.200 292.264,169.200 285.976 L 169.200 280.000 167.424 280.000 C 165.484 280.000,165.012 279.622,165.405 278.385 C 165.647 277.622,165.945 277.583,170.731 277.688 L 175.800 277.800 175.800 278.800 M208.888 278.300 C 209.256 279.717,208.803 280.000,206.167 280.000 L 203.600 280.000 203.600 281.778 L 203.600 283.556 205.500 283.678 C 208.381 283.863,208.395 285.736,205.517 285.921 L 203.634 286.042 203.517 288.879 C 203.394 291.854,202.820 292.800,201.454 292.276 C 200.777 292.016,200.413 278.520,201.067 277.867 C 201.736 277.197,208.702 277.583,208.888 278.300 M264.000 278.800 C 264.000 279.954,263.932 280.000,262.211 280.000 L 260.421 280.000 260.311 285.857 C 260.215 290.926,260.106 291.773,259.500 292.155 C 257.783 293.237,257.409 292.170,257.289 285.857 L 257.179 280.000 255.423 280.000 C 253.623 280.000,253.174 279.601,253.512 278.300 C 253.673 277.679,254.275 277.600,258.847 277.600 L 264.000 277.600 264.000 278.800 M269.600 283.400 C 269.824 289.685,269.927 290.000,271.744 290.000 C 273.817 290.000,273.999 289.533,274.005 284.220 C 274.012 278.181,274.169 277.518,275.552 277.678 L 276.600 277.800 276.704 283.600 C 276.828 290.495,276.422 291.640,273.580 292.406 C 268.957 293.650,267.050 291.413,266.867 284.533 C 266.700 278.271,266.861 277.507,268.314 277.675 L 269.400 277.800 269.600 283.400 M301.925 278.880 C 302.047 279.942,302.007 279.963,299.525 280.080 L 297.000 280.200 296.877 281.900 L 296.754 283.600 298.963 283.600 C 302.813 283.600,303.022 285.859,299.191 286.076 L 297.000 286.200 296.879 288.080 L 296.758 289.961 299.279 290.080 C 301.670 290.194,301.800 290.252,301.800 291.200 C 301.800 292.196,301.787 292.200,298.000 292.200 L 294.200 292.200 294.086 285.800 C 293.927 276.948,293.631 277.546,298.111 277.685 C 301.789 277.800,301.800 277.803,301.925 278.880 M309.116 278.100 C 309.343 278.375,310.256 280.400,311.144 282.600 L 312.760 286.600 312.780 282.874 C 312.802 278.852,313.188 277.600,314.406 277.600 C 315.517 277.600,315.644 278.543,315.514 285.800 L 315.400 292.200 313.966 292.320 C 312.185 292.470,312.086 292.342,310.159 287.409 L 308.600 283.419 308.400 287.567 C 308.191 291.902,307.758 292.853,306.254 292.276 C 305.577 292.016,305.213 278.520,305.867 277.867 C 306.326 277.407,308.682 277.576,309.116 278.100 M328.800 278.800 C 328.800 279.954,328.732 280.000,327.011 280.000 L 325.221 280.000 325.111 285.857 C 324.991 292.170,324.617 293.237,322.900 292.155 C 322.294 291.773,322.185 290.926,322.089 285.857 L 321.979 280.000 320.223 280.000 C 318.423 280.000,317.974 279.601,318.312 278.300 C 318.473 277.679,319.075 277.600,323.647 277.600 L 328.800 277.600 328.800 278.800 M63.888 279.845 C 62.864 280.869,63.615 283.600,64.920 283.600 C 67.921 283.600,68.135 280.551,65.186 279.811 C 64.630 279.671,64.046 279.687,63.888 279.845 M130.000 284.822 L 130.000 290.044 131.890 289.922 C 135.593 289.683,136.268 281.269,132.685 280.020 C 129.980 279.077,130.000 279.041,130.000 284.822 M228.187 280.511 C 227.481 283.320,228.926 284.817,231.180 283.611 C 232.001 283.171,232.384 280.685,231.697 280.260 C 230.344 279.424,228.425 279.561,228.187 280.511 M283.443 280.233 C 283.309 280.581,283.200 282.921,283.200 285.433 L 283.200 290.000 284.951 290.000 C 287.589 290.000,288.557 287.508,287.822 282.609 C 287.464 280.222,284.139 278.418,283.443 280.233 M215.029 280.629 C 214.287 281.370,214.123 287.936,214.814 289.226 C 215.513 290.532,218.302 290.306,218.842 288.900 C 219.479 287.242,219.147 280.863,218.400 280.391 C 217.476 279.807,215.727 279.930,215.029 280.629 M63.600 288.022 L 63.600 290.044 65.500 289.922 C 69.112 289.690,68.241 286.000,64.574 286.000 C 63.670 286.000,63.600 286.146,63.600 288.022 M191.920 289.680 C 193.057 290.817,191.819 295.800,190.400 295.800 C 189.953 295.800,189.800 295.327,189.800 293.939 C 189.800 292.916,189.665 291.941,189.500 291.773 C 189.020 291.283,189.151 290.506,189.829 289.829 C 190.580 289.077,191.268 289.028,191.920 289.680 " stroke="none" fill="#345464" fill-rule="evenodd"></path><path id="path1" d="M154.400 103.478 C 152.820 104.042,152.800 104.307,152.800 124.200 C 152.800 140.188,152.896 143.579,153.368 144.224 C 154.021 145.118,191.105 145.672,193.345 144.821 L 194.400 144.420 194.400 124.472 C 194.400 105.655,194.359 104.486,193.669 103.862 C 192.945 103.207,156.164 102.847,154.400 103.478 M207.077 103.480 C 206.680 103.583,206.185 104.114,205.977 104.660 C 205.313 106.407,205.491 143.297,206.168 144.224 C 206.821 145.118,243.905 145.672,246.145 144.821 L 247.200 144.420 247.200 124.438 C 247.200 106.807,247.126 104.383,246.571 103.829 C 245.963 103.220,209.328 102.897,207.077 103.480 M189.600 124.000 L 189.600 140.000 173.600 140.000 L 157.600 140.000 157.600 124.267 C 157.600 115.613,157.720 108.413,157.867 108.267 C 158.013 108.120,165.213 108.000,173.867 108.000 L 189.600 108.000 189.600 124.000 M242.400 124.000 L 242.400 140.000 226.400 140.000 L 210.400 140.000 210.400 124.480 C 210.400 112.942,210.523 108.837,210.880 108.480 C 211.237 108.123,215.342 108.000,226.880 108.000 L 242.400 108.000 242.400 124.000 M172.198 115.752 C 171.628 116.169,171.403 116.949,171.275 118.952 L 171.107 121.600 169.134 121.600 C 163.534 121.600,162.837 126.242,168.400 126.486 L 171.000 126.600 171.200 129.333 C 171.583 134.561,176.000 135.052,176.000 129.866 C 176.000 126.728,176.331 126.400,179.490 126.400 C 181.875 126.400,182.043 126.338,182.434 125.311 C 183.314 122.996,181.637 121.600,177.974 121.600 L 176.000 121.600 176.000 119.062 C 176.000 115.603,174.358 114.173,172.198 115.752 M219.000 122.078 C 217.954 122.671,217.614 123.207,217.606 124.271 C 217.592 126.248,218.253 126.400,226.837 126.400 L 234.817 126.400 235.259 125.429 C 235.874 124.080,235.411 122.625,234.191 122.069 C 232.816 121.442,220.107 121.450,219.000 122.078 M154.135 156.473 C 153.659 156.703,153.166 157.276,153.040 157.746 C 152.539 159.615,152.781 196.222,153.300 196.928 C 153.761 197.557,155.365 197.601,174.000 197.505 L 194.200 197.400 194.200 177.212 L 194.200 157.024 193.200 156.518 C 191.905 155.862,155.483 155.820,154.135 156.473 M206.582 156.982 L 205.600 157.964 205.600 177.105 C 205.600 191.789,205.716 196.406,206.100 196.928 C 206.561 197.557,208.165 197.601,226.800 197.505 L 247.000 197.400 247.108 177.400 C 247.217 157.410,247.216 157.400,246.364 156.700 C 245.579 156.055,244.016 156.000,226.538 156.000 L 207.564 156.000 206.582 156.982 M189.600 177.005 L 189.600 193.209 173.700 193.105 L 157.800 193.000 157.695 177.401 C 157.638 168.821,157.677 161.576,157.783 161.301 C 157.932 160.911,161.490 160.800,173.787 160.800 L 189.600 160.800 189.600 177.005 M242.400 177.005 L 242.400 193.209 226.500 193.105 L 210.600 193.000 210.495 177.447 C 210.420 166.299,210.519 161.739,210.844 161.347 C 211.214 160.902,214.188 160.800,226.849 160.800 L 242.400 160.800 242.400 177.005 M167.054 170.029 C 165.550 171.212,165.732 172.096,168.000 174.600 C 169.100 175.815,170.000 176.924,170.000 177.066 C 170.000 177.207,169.100 178.274,168.000 179.437 C 163.930 183.741,167.059 186.870,171.363 182.800 C 172.526 181.700,173.647 180.800,173.854 180.800 C 174.061 180.800,175.117 181.700,176.200 182.800 C 178.391 185.025,179.420 185.269,180.730 183.874 C 181.984 182.539,181.835 182.002,179.600 179.800 C 178.500 178.717,177.600 177.571,177.600 177.254 C 177.600 176.937,178.500 175.726,179.600 174.563 C 181.794 172.243,181.953 171.724,180.876 170.394 C 179.694 168.935,178.203 169.230,176.051 171.350 C 173.712 173.653,173.551 173.648,170.963 171.200 C 168.556 168.924,168.486 168.903,167.054 170.029 M218.229 170.229 C 217.447 171.010,217.420 172.401,218.167 173.424 C 219.077 174.669,233.556 174.844,234.776 173.624 C 235.680 172.720,235.825 171.568,235.186 170.374 C 234.612 169.301,219.287 169.170,218.229 170.229 M218.262 180.731 C 217.388 181.698,217.421 183.314,218.331 184.138 C 219.489 185.186,233.982 185.125,234.938 184.069 C 235.812 183.102,235.779 181.486,234.869 180.662 C 233.711 179.614,219.218 179.675,218.262 180.731 M109.600 224.742 C 98.312 227.165,94.667 241.830,103.435 249.547 C 108.216 253.756,116.992 254.005,121.500 250.060 C 122.714 248.997,122.627 248.468,120.944 246.657 L 119.510 245.114 117.380 246.157 C 110.991 249.286,104.678 245.661,104.622 238.831 C 104.564 231.823,110.931 228.002,117.275 231.238 C 119.286 232.264,119.636 232.213,121.122 230.681 C 122.811 228.938,122.735 228.263,120.700 226.902 C 117.548 224.794,113.251 223.958,109.600 224.742 M235.200 227.183 L 235.200 229.566 238.300 229.683 L 241.400 229.800 241.506 240.980 C 241.625 253.472,241.441 252.784,244.676 252.794 C 247.483 252.802,247.374 253.251,247.600 240.800 L 247.800 229.800 250.900 229.683 L 254.000 229.566 254.000 227.183 L 254.000 224.800 244.600 224.800 L 235.200 224.800 235.200 227.183 M212.205 227.681 C 212.103 227.966,211.971 229.280,211.910 230.600 L 211.800 233.000 210.102 233.123 C 206.971 233.350,206.969 237.321,210.100 237.522 L 212.000 237.644 212.000 245.014 L 212.000 252.385 212.932 252.619 C 213.445 252.747,214.660 252.796,215.632 252.726 L 217.400 252.600 217.600 245.200 L 217.800 237.800 219.600 237.600 L 221.400 237.400 221.400 235.400 C 221.400 233.563,221.318 233.391,220.400 233.288 C 217.626 232.977,217.645 232.999,217.518 230.097 L 217.400 227.400 214.895 227.281 C 213.115 227.196,212.336 227.312,212.205 227.681 M131.871 233.770 C 122.300 238.460,125.411 252.800,136.000 252.800 C 145.250 252.800,149.654 242.198,143.066 235.792 C 139.839 232.654,135.681 231.904,131.871 233.770 M159.283 233.467 C 158.559 233.824,157.612 234.567,157.178 235.119 C 156.284 236.255,156.253 236.244,155.721 234.600 C 155.348 233.446,155.243 233.400,152.967 233.400 L 150.600 233.400 150.600 243.000 L 150.600 252.600 152.732 252.722 C 155.957 252.907,156.000 252.821,156.000 246.120 L 156.000 240.338 157.169 239.169 C 158.674 237.665,160.672 237.585,162.278 238.965 L 163.400 239.930 163.539 246.065 C 163.692 252.866,163.658 252.785,166.420 252.794 C 169.123 252.803,169.200 252.617,169.200 246.089 L 169.200 240.338 170.369 239.169 C 171.967 237.571,174.395 237.522,175.819 239.058 C 176.772 240.086,176.800 240.294,176.800 246.251 C 176.800 253.220,176.674 252.995,180.432 252.726 L 182.200 252.600 182.200 245.170 L 182.200 237.739 181.100 236.077 C 178.477 232.118,173.176 231.681,169.498 235.122 L 168.396 236.153 167.098 234.951 C 164.705 232.735,161.863 232.196,159.283 233.467 M193.000 233.293 C 182.306 237.119,185.241 252.819,196.646 252.796 C 199.844 252.790,204.024 250.481,203.466 249.028 C 202.942 247.661,201.434 247.143,199.875 247.795 C 197.249 248.892,194.447 248.475,192.838 246.749 C 191.152 244.939,191.532 244.800,198.151 244.800 C 205.355 244.800,205.432 244.763,205.089 241.444 C 204.445 235.198,198.630 231.278,193.000 233.293 M263.409 233.625 C 255.986 237.328,255.664 248.169,262.870 251.760 C 265.631 253.136,268.047 253.137,270.629 251.764 C 271.850 251.115,272.631 250.894,272.724 251.172 C 273.057 252.172,274.142 252.800,275.529 252.794 C 278.095 252.783,278.026 253.074,277.908 242.772 L 277.800 233.400 275.644 233.400 C 273.902 233.400,273.402 233.554,273.044 234.200 C 272.800 234.640,272.556 235.074,272.502 235.164 C 272.449 235.255,272.089 235.051,271.702 234.712 C 269.410 232.702,266.124 232.271,263.409 233.625 M282.679 233.454 C 282.540 233.594,283.770 235.648,285.413 238.018 C 289.095 243.332,289.268 241.876,284.092 249.171 C 281.690 252.556,281.762 252.784,285.230 252.794 C 287.726 252.801,288.150 252.487,290.232 249.101 C 291.653 246.790,291.732 246.784,293.104 248.854 C 295.403 252.322,296.086 252.800,298.746 252.800 C 301.978 252.800,301.977 252.790,298.539 247.781 C 296.885 245.372,295.438 243.176,295.323 242.902 C 295.209 242.628,296.417 240.561,298.007 238.308 C 301.859 232.849,301.840 233.200,298.284 233.200 L 295.283 233.200 293.955 235.300 C 291.894 238.558,291.752 238.553,289.580 235.169 L 288.317 233.200 285.625 233.200 C 284.145 233.200,282.819 233.314,282.679 233.454 M198.838 238.427 C 201.459 240.293,200.531 241.200,196.000 241.200 C 192.452 241.200,192.001 241.121,192.013 240.500 C 192.059 237.974,196.366 236.667,198.838 238.427 M138.174 238.390 C 140.700 239.350,141.595 243.483,139.789 245.849 C 137.452 248.914,133.180 248.270,131.795 244.644 C 130.205 240.479,133.967 236.791,138.174 238.390 M270.536 238.821 C 272.617 240.458,272.925 244.594,271.094 246.309 C 266.951 250.190,261.225 245.573,263.630 240.293 C 264.645 238.067,268.526 237.240,270.536 238.821 " stroke="none" fill="#c14c3c" fill-rule="evenodd"></path><path id="path2" d="M61.393 278.900 C 61.271 279.395,61.222 282.500,61.285 285.800 L 61.400 291.800 64.459 291.916 C 69.377 292.103,71.778 288.570,68.850 285.453 C 67.974 284.521,67.951 284.392,68.550 283.793 C 70.140 282.203,69.659 279.559,67.588 278.512 C 65.760 277.587,61.654 277.844,61.393 278.900 M73.294 278.342 C 72.891 278.591,72.903 278.891,73.356 279.827 C 74.066 281.294,75.318 284.120,76.159 286.149 C 76.511 287.001,76.800 288.679,76.800 289.878 C 76.800 293.465,78.128 292.738,78.412 288.996 C 78.532 287.410,78.986 285.421,79.462 284.400 C 80.601 281.958,82.000 278.732,82.000 278.549 C 82.000 278.467,81.648 278.400,81.219 278.400 C 80.477 278.400,80.074 279.044,78.713 282.400 C 77.586 285.180,77.314 285.116,75.984 281.760 C 74.846 278.887,74.049 277.875,73.294 278.342 M91.628 278.496 C 88.673 280.028,89.938 284.590,93.600 285.610 C 97.942 286.819,97.332 290.630,92.816 290.505 C 90.686 290.446,90.366 290.530,90.478 291.118 C 90.665 292.101,95.167 292.302,96.560 291.389 C 99.419 289.516,97.449 284.000,93.921 284.000 C 92.775 284.000,91.519 282.381,91.790 281.255 C 92.150 279.760,93.152 279.141,95.000 279.271 C 96.197 279.356,96.600 279.235,96.600 278.792 C 96.600 278.011,92.980 277.796,91.628 278.496 M101.478 278.273 C 100.151 278.629,101.040 279.399,102.921 279.521 L 104.779 279.643 104.890 285.716 C 104.988 291.131,105.076 291.804,105.700 291.924 C 106.340 292.047,106.400 291.569,106.400 286.309 C 106.400 279.885,106.507 279.600,108.909 279.600 C 110.169 279.600,110.434 279.469,110.325 278.900 C 110.191 278.201,103.512 277.728,101.478 278.273 M114.675 278.258 C 113.775 279.158,114.407 289.547,115.436 290.769 C 117.311 292.998,121.655 292.365,122.757 289.703 C 123.489 287.937,123.186 278.200,122.400 278.200 C 121.901 278.200,121.781 279.121,121.689 283.648 C 121.562 289.866,121.227 290.593,118.519 290.517 C 116.476 290.459,116.229 289.784,116.000 283.632 C 115.815 278.658,115.510 277.423,114.675 278.258 M128.000 285.000 L 128.000 292.000 131.053 292.000 C 135.700 292.000,136.801 290.711,136.799 285.272 C 136.796 279.304,135.680 278.000,130.574 278.000 L 128.000 278.000 128.000 285.000 M141.639 278.554 C 141.324 278.932,141.214 281.113,141.290 285.454 L 141.400 291.800 144.795 291.800 C 147.709 291.800,148.208 291.701,148.324 291.100 C 148.441 290.491,148.119 290.400,145.837 290.400 C 142.880 290.400,142.435 289.871,142.974 286.997 L 143.236 285.600 145.647 285.600 C 149.162 285.600,148.958 284.297,145.396 284.000 C 141.305 283.659,141.478 279.600,145.584 279.600 C 147.933 279.600,149.014 279.034,147.951 278.361 C 147.030 277.778,142.159 277.926,141.639 278.554 M152.977 278.516 C 152.379 280.073,153.011 291.792,153.700 291.924 C 154.338 292.047,154.400 291.595,154.400 286.853 C 154.400 281.425,154.676 280.388,155.549 282.529 C 155.834 283.228,156.215 284.160,156.395 284.600 C 156.576 285.040,157.305 286.895,158.015 288.721 C 159.278 291.967,159.336 292.040,160.554 291.921 L 161.800 291.800 161.800 285.205 C 161.800 279.243,161.733 278.598,161.100 278.476 C 160.467 278.354,160.399 278.774,160.394 282.871 C 160.391 285.362,160.221 287.664,160.017 287.986 C 159.619 288.616,159.699 288.758,158.205 284.800 C 157.831 283.810,157.374 282.640,157.189 282.200 C 157.004 281.760,156.629 280.738,156.356 279.928 C 155.766 278.180,153.474 277.222,152.977 278.516 M166.278 278.273 C 164.951 278.629,165.840 279.399,167.721 279.521 L 169.579 279.643 169.690 285.716 C 169.788 291.131,169.876 291.804,170.500 291.924 C 171.140 292.047,171.200 291.569,171.200 286.309 C 171.200 279.885,171.307 279.600,173.709 279.600 C 174.969 279.600,175.234 279.469,175.125 278.900 C 174.991 278.201,168.312 277.728,166.278 278.273 M180.400 278.271 C 177.065 279.525,178.021 284.506,181.796 285.548 C 186.275 286.785,185.895 290.493,181.281 290.565 C 177.769 290.619,178.062 291.758,181.629 291.917 C 187.099 292.159,188.605 286.297,183.548 284.443 C 180.694 283.396,180.204 283.012,180.078 281.726 C 179.919 280.105,181.153 279.200,183.522 279.200 C 184.739 279.200,185.217 279.049,185.102 278.700 C 184.930 278.178,181.482 277.863,180.400 278.271 M201.639 278.554 C 200.809 279.553,201.230 291.757,202.100 291.924 C 202.701 292.040,202.801 291.731,202.805 289.729 C 202.814 285.981,202.993 285.659,205.141 285.520 C 207.820 285.347,207.720 284.272,205.000 284.000 C 203.151 283.815,202.990 283.713,202.869 282.652 C 202.573 280.060,202.982 279.600,205.584 279.600 C 207.933 279.600,209.014 279.034,207.951 278.361 C 207.030 277.778,202.159 277.926,201.639 278.554 M213.960 278.643 C 211.296 280.358,211.169 289.101,213.777 291.291 C 215.153 292.447,218.819 292.257,220.030 290.968 C 221.452 289.454,221.523 280.545,220.124 279.146 C 218.948 277.970,215.450 277.685,213.960 278.643 M226.000 284.987 C 226.000 291.506,226.055 292.048,226.700 291.925 C 227.275 291.815,227.421 291.282,227.517 288.932 C 227.696 284.550,229.491 284.562,231.772 288.961 C 233.129 291.577,233.736 292.187,234.640 291.840 C 235.102 291.663,235.173 291.448,234.883 291.095 C 234.659 290.823,233.908 289.562,233.214 288.294 L 231.952 285.988 233.176 284.503 C 235.980 281.101,234.262 278.290,229.239 278.062 L 226.000 277.915 226.000 284.987 M245.200 278.271 C 241.865 279.525,242.821 284.506,246.596 285.548 C 251.075 286.785,250.695 290.493,246.081 290.565 C 242.569 290.619,242.862 291.758,246.429 291.917 C 251.899 292.159,253.405 286.297,248.348 284.443 C 245.494 283.396,245.004 283.012,244.878 281.726 C 244.719 280.105,245.953 279.200,248.322 279.200 C 249.539 279.200,250.017 279.049,249.902 278.700 C 249.730 278.178,246.282 277.863,245.200 278.271 M254.403 278.389 C 253.519 278.949,254.325 279.525,256.200 279.673 L 257.800 279.800 258.000 285.800 C 258.166 290.778,258.302 291.800,258.800 291.800 C 259.298 291.800,259.434 290.778,259.600 285.800 L 259.800 279.800 261.400 279.673 C 263.275 279.525,264.081 278.949,263.197 278.389 C 262.421 277.899,255.179 277.899,254.403 278.389 M281.200 284.958 L 281.200 292.000 284.194 292.000 C 286.937 292.000,287.297 291.902,288.494 290.832 L 289.800 289.664 289.800 285.041 C 289.800 278.946,289.286 278.282,284.394 278.060 L 281.200 277.915 281.200 284.958 M294.583 278.500 C 294.471 278.793,294.429 281.905,294.489 285.416 L 294.600 291.800 298.100 291.916 C 301.368 292.023,301.600 291.978,301.600 291.234 C 301.600 290.528,301.291 290.423,298.900 290.318 L 296.200 290.200 296.200 288.000 L 296.200 285.800 298.600 285.600 C 302.079 285.310,301.995 284.247,298.480 284.080 L 295.960 283.961 296.080 281.880 L 296.200 279.800 298.800 279.600 C 300.756 279.450,301.400 279.251,301.400 278.800 C 301.400 277.971,294.896 277.685,294.583 278.500 M306.439 278.554 C 305.609 279.553,306.030 291.757,306.900 291.924 C 307.535 292.046,307.601 291.616,307.606 287.329 C 307.613 282.392,308.028 280.580,308.734 282.414 C 312.311 291.711,312.518 292.088,313.966 291.920 L 315.000 291.800 315.000 285.000 C 315.000 279.222,314.910 278.200,314.400 278.200 C 313.902 278.200,313.781 279.105,313.688 283.500 C 313.627 286.415,313.446 288.800,313.286 288.800 C 312.971 288.800,312.828 288.479,310.610 282.800 C 308.682 277.864,307.776 276.941,306.439 278.554 M319.203 278.389 C 318.319 278.949,319.125 279.525,321.000 279.673 L 322.600 279.800 322.800 285.800 C 322.966 290.778,323.102 291.800,323.600 291.800 C 324.098 291.800,324.234 290.778,324.400 285.800 L 324.600 279.800 326.200 279.673 C 328.075 279.525,328.881 278.949,327.997 278.389 C 327.221 277.899,319.979 277.899,319.203 278.389 M333.228 278.496 C 330.273 280.028,331.538 284.590,335.200 285.610 C 339.542 286.819,338.932 290.630,334.416 290.505 C 332.286 290.446,331.966 290.530,332.078 291.118 C 332.265 292.101,336.767 292.302,338.160 291.389 C 341.019 289.516,339.049 284.000,335.521 284.000 C 334.375 284.000,333.119 282.381,333.390 281.255 C 333.750 279.760,334.752 279.141,336.600 279.271 C 337.797 279.356,338.200 279.235,338.200 278.792 C 338.200 278.011,334.580 277.796,333.228 278.496 M267.670 284.134 C 267.829 291.230,268.238 292.000,271.847 292.000 C 275.736 292.000,276.172 291.246,276.338 284.235 C 276.470 278.605,276.447 278.400,275.668 278.400 C 274.906 278.400,274.855 278.695,274.731 283.787 C 274.582 289.928,274.290 290.589,271.765 290.518 C 269.561 290.455,269.420 290.100,269.200 284.085 C 269.021 279.191,268.922 278.594,268.270 278.469 C 267.586 278.338,267.548 278.693,267.670 284.134 M67.352 280.518 C 68.707 282.341,67.655 283.800,64.985 283.800 C 62.767 283.800,62.466 283.306,62.988 280.526 C 63.334 278.681,65.982 278.676,67.352 280.518 M133.326 279.665 C 134.912 280.510,135.174 281.265,135.187 285.025 C 135.202 289.170,134.673 290.162,132.205 290.626 C 129.632 291.108,129.600 291.037,129.600 284.813 L 129.600 279.200 131.026 279.200 C 131.811 279.200,132.846 279.409,133.326 279.665 M218.147 279.649 C 220.628 280.779,220.190 290.022,217.631 290.534 C 214.736 291.113,213.600 289.473,213.600 284.714 C 213.600 280.163,215.247 278.328,218.147 279.649 M231.874 280.070 C 234.074 282.136,230.504 286.312,228.184 284.386 C 227.587 283.891,227.336 279.997,227.867 279.467 C 228.481 278.853,230.979 279.229,231.874 280.070 M287.269 280.408 C 288.465 281.603,288.475 281.652,288.338 285.337 C 288.168 289.907,286.671 291.575,283.609 290.603 C 282.793 290.344,282.300 280.233,283.067 279.467 C 283.803 278.730,286.108 279.247,287.269 280.408 M67.642 286.442 C 69.258 288.058,68.262 290.145,65.635 290.651 C 63.332 291.094,62.254 289.428,62.978 286.545 C 63.306 285.240,66.372 285.172,67.642 286.442 M190.518 289.937 C 190.041 290.244,190.182 294.927,190.673 295.091 C 191.073 295.224,192.000 292.399,192.000 291.049 C 192.000 290.052,191.234 289.477,190.518 289.937 " stroke="none" fill="#c5d8d3" fill-rule="evenodd"></path><path id="path3" d="M154.078 103.085 C 152.451 103.396,152.373 104.455,152.489 124.887 C 152.596 143.737,152.629 144.486,153.376 145.032 C 154.022 145.504,157.475 145.600,173.861 145.600 L 193.569 145.600 194.384 144.725 C 195.182 143.869,195.200 143.419,195.200 124.543 C 195.200 104.335,195.131 103.490,193.451 103.039 C 192.471 102.776,155.469 102.819,154.078 103.085 M206.878 103.085 C 205.251 103.396,205.173 104.457,205.289 124.838 C 205.397 143.831,205.422 144.383,206.200 144.970 C 207.071 145.628,245.664 145.929,246.675 145.286 C 247.871 144.525,248.000 142.474,248.000 124.234 C 248.000 104.845,247.889 103.478,246.275 103.046 C 245.278 102.778,208.289 102.816,206.878 103.085 M193.669 103.862 C 194.359 104.486,194.400 105.655,194.400 124.472 L 194.400 144.420 193.345 144.821 C 191.105 145.672,154.021 145.118,153.368 144.224 C 152.581 143.147,152.517 105.310,153.300 104.322 C 154.130 103.276,154.348 103.264,173.969 103.232 C 191.085 103.203,193.008 103.265,193.669 103.862 M246.571 103.829 C 247.126 104.383,247.200 106.807,247.200 124.438 L 247.200 144.420 246.145 144.821 C 243.905 145.672,206.821 145.118,206.168 144.224 C 205.491 143.297,205.313 106.407,205.977 104.660 C 206.511 103.255,205.888 103.297,226.871 103.246 C 243.716 103.205,246.016 103.273,246.571 103.829 M157.867 108.267 C 157.720 108.413,157.600 115.613,157.600 124.267 L 157.600 140.000 173.600 140.000 L 189.600 140.000 189.600 124.000 L 189.600 108.000 173.867 108.000 C 165.213 108.000,158.013 108.120,157.867 108.267 M210.880 108.480 C 210.523 108.837,210.400 112.942,210.400 124.480 L 210.400 140.000 226.400 140.000 L 242.400 140.000 242.400 124.000 L 242.400 108.000 226.880 108.000 C 215.342 108.000,211.237 108.123,210.880 108.480 M189.200 124.200 L 189.200 139.600 173.600 139.600 L 158.000 139.600 158.000 124.467 C 158.000 116.143,158.120 109.213,158.267 109.067 C 158.413 108.920,165.433 108.800,173.867 108.800 L 189.200 108.800 189.200 124.200 M242.000 124.200 L 242.000 139.600 226.600 139.600 L 211.200 139.600 211.200 124.200 L 211.200 108.800 226.600 108.800 L 242.000 108.800 242.000 124.200 M171.837 115.324 C 171.319 115.703,171.061 116.589,170.905 118.524 L 170.690 121.200 169.005 121.200 C 165.211 121.200,163.510 122.874,164.621 125.514 C 165.183 126.852,165.811 127.119,168.800 127.295 L 170.600 127.400 170.838 129.884 C 171.126 132.895,171.642 133.602,173.549 133.594 C 175.963 133.584,176.800 132.459,176.800 129.226 L 176.800 127.200 179.125 127.200 C 184.810 127.200,184.906 121.824,179.230 121.309 L 176.800 121.089 176.800 119.118 C 176.800 115.383,174.334 113.498,171.837 115.324 M175.269 115.862 C 175.831 116.371,176.000 117.111,176.000 119.062 L 176.000 121.600 177.974 121.600 C 181.637 121.600,183.314 122.996,182.434 125.311 C 182.043 126.338,181.875 126.400,179.490 126.400 C 176.331 126.400,176.000 126.728,176.000 129.866 C 176.000 135.052,171.583 134.561,171.200 129.333 L 171.000 126.600 168.400 126.486 C 162.837 126.242,163.534 121.600,169.134 121.600 L 171.107 121.600 171.275 118.952 C 171.498 115.453,173.287 114.069,175.269 115.862 M218.811 121.645 C 216.944 122.390,216.545 124.959,218.075 126.384 C 219.409 127.627,233.960 127.640,235.200 126.400 C 236.669 124.931,235.932 121.563,234.156 121.627 C 233.498 121.651,233.518 121.711,234.309 122.092 C 235.424 122.629,235.851 124.130,235.259 125.429 L 234.817 126.400 226.837 126.400 C 218.200 126.400,217.600 126.257,217.600 124.200 C 217.600 123.681,217.883 122.974,218.229 122.629 C 218.574 122.283,218.889 121.966,218.929 121.923 C 218.968 121.881,222.240 121.738,226.200 121.605 L 233.400 121.364 226.600 121.307 C 222.860 121.276,219.355 121.428,218.811 121.645 M153.921 156.051 C 152.379 156.625,152.341 157.210,152.479 178.532 C 152.595 196.540,152.630 197.287,153.376 197.832 C 154.403 198.583,192.312 198.684,193.726 197.940 C 195.189 197.170,195.188 197.195,195.194 177.144 C 195.200 158.582,195.165 157.645,194.436 156.744 L 193.671 155.800 174.336 155.724 C 162.155 155.676,154.601 155.797,153.921 156.051 M206.894 156.015 C 206.396 156.215,205.806 156.858,205.583 157.444 C 204.937 159.143,205.254 197.015,205.920 197.680 C 206.464 198.225,243.110 198.708,245.865 198.207 C 247.947 197.828,248.000 197.303,248.000 177.000 C 248.000 157.612,247.871 156.000,246.317 156.000 C 245.528 156.000,245.529 156.014,246.364 156.700 C 247.216 157.400,247.217 157.410,247.108 177.400 L 247.000 197.400 226.800 197.505 C 208.165 197.601,206.561 197.557,206.100 196.928 C 205.153 195.638,205.401 158.335,206.364 157.144 L 207.129 156.200 226.264 155.992 L 245.400 155.785 226.600 155.718 C 216.062 155.680,207.402 155.811,206.894 156.015 M193.200 156.518 L 194.200 157.024 194.200 177.212 L 194.200 197.400 174.000 197.505 C 155.365 197.601,153.761 197.557,153.300 196.928 C 152.781 196.222,152.539 159.615,153.040 157.746 C 153.166 157.276,153.659 156.703,154.135 156.473 C 155.483 155.820,191.905 155.862,193.200 156.518 M157.783 161.301 C 157.677 161.576,157.638 168.821,157.695 177.401 L 157.800 193.000 173.700 193.105 L 189.600 193.209 189.600 177.005 L 189.600 160.800 173.787 160.800 C 161.490 160.800,157.932 160.911,157.783 161.301 M210.844 161.347 C 210.519 161.739,210.420 166.299,210.495 177.447 L 210.600 193.000 226.500 193.105 L 242.400 193.209 242.400 177.005 L 242.400 160.800 226.849 160.800 C 214.188 160.800,211.214 160.902,210.844 161.347 M189.200 177.205 L 189.200 192.809 173.700 192.705 L 158.200 192.600 158.095 177.601 C 158.037 169.352,158.077 162.377,158.182 162.101 C 158.332 161.712,161.803 161.600,173.787 161.600 L 189.200 161.600 189.200 177.205 M242.000 177.205 L 242.000 192.810 226.700 192.705 L 211.400 192.600 211.295 177.100 L 211.191 161.600 226.595 161.600 L 242.000 161.600 242.000 177.205 M166.654 169.629 C 164.963 170.959,165.206 172.647,167.400 174.800 C 168.390 175.772,169.200 176.735,169.200 176.942 C 169.200 177.148,168.390 178.183,167.400 179.241 C 165.003 181.803,164.950 183.837,167.248 185.025 C 168.659 185.754,169.843 185.256,171.978 183.034 C 173.726 181.216,173.715 181.214,176.237 183.600 C 178.690 185.920,179.242 186.020,180.831 184.431 C 182.470 182.791,182.310 181.880,179.942 179.376 L 177.884 177.200 179.942 175.024 C 184.388 170.323,180.585 166.496,175.808 170.862 L 173.551 172.925 171.463 170.862 C 169.175 168.602,168.258 168.367,166.654 169.629 M218.600 169.278 C 217.075 170.143,216.675 172.328,217.767 173.824 C 218.494 174.819,233.020 175.226,234.800 174.301 C 236.226 173.560,236.428 170.830,235.146 169.635 C 234.097 168.658,220.222 168.358,218.600 169.278 M170.963 171.200 C 173.551 173.648,173.712 173.653,176.051 171.350 C 178.203 169.230,179.694 168.935,180.876 170.394 C 181.953 171.724,181.794 172.243,179.600 174.563 C 178.500 175.726,177.600 176.937,177.600 177.254 C 177.600 177.571,178.500 178.717,179.600 179.800 C 181.835 182.002,181.984 182.539,180.730 183.874 C 179.420 185.269,178.391 185.025,176.200 182.800 C 175.117 181.700,174.061 180.800,173.854 180.800 C 173.647 180.800,172.526 181.700,171.363 182.800 C 167.059 186.870,163.930 183.741,168.000 179.437 C 169.100 178.274,170.000 177.207,170.000 177.066 C 170.000 176.924,169.100 175.815,168.000 174.600 C 165.732 172.096,165.550 171.212,167.054 170.029 C 168.486 168.903,168.556 168.924,170.963 171.200 M235.186 170.374 C 235.825 171.568,235.680 172.720,234.776 173.624 C 233.556 174.844,219.077 174.669,218.167 173.424 C 217.420 172.401,217.447 171.010,218.229 170.229 C 219.287 169.170,234.612 169.301,235.186 170.374 M218.000 180.400 C 217.556 180.844,217.200 181.733,217.200 182.400 C 217.200 184.986,217.913 185.200,226.511 185.200 C 235.434 185.200,236.000 185.033,236.000 182.400 C 236.000 179.767,235.434 179.600,226.511 179.600 C 219.333 179.600,218.745 179.655,218.000 180.400 M234.869 180.662 C 235.779 181.486,235.812 183.102,234.938 184.069 C 233.982 185.125,219.489 185.186,218.331 184.138 C 217.421 183.314,217.388 181.698,218.262 180.731 C 219.218 179.675,233.711 179.614,234.869 180.662 M108.400 224.476 C 101.253 227.489,98.208 231.708,98.206 238.600 C 98.201 251.515,112.700 258.413,122.318 250.071 C 123.569 248.987,123.431 248.393,121.485 246.483 C 119.525 244.560,119.126 244.482,117.215 245.647 C 111.145 249.348,103.627 243.873,105.190 236.891 C 106.438 231.314,113.020 228.739,117.633 232.024 C 119.220 233.153,119.749 233.008,121.566 230.944 C 123.455 228.798,123.525 228.445,122.292 227.286 C 119.425 224.593,111.787 223.048,108.400 224.476 M234.880 224.480 C 234.228 225.132,234.256 229.383,234.917 229.931 C 235.201 230.167,236.686 230.414,238.217 230.480 L 241.000 230.600 241.200 241.567 C 241.369 250.861,241.492 252.559,242.000 252.697 C 242.438 252.817,242.466 252.766,242.106 252.511 C 241.740 252.251,241.586 249.289,241.506 240.980 L 241.400 229.800 238.300 229.683 L 235.200 229.566 235.200 227.183 L 235.200 224.800 244.600 224.800 L 254.000 224.800 254.000 227.183 L 254.000 229.566 250.900 229.683 L 247.800 229.800 247.600 240.800 C 247.374 253.220,247.481 252.778,244.676 252.864 C 243.099 252.913,242.930 252.968,243.973 253.095 C 244.728 253.187,245.941 253.150,246.667 253.014 L 247.987 252.766 248.094 241.683 L 248.200 230.600 251.200 230.400 L 254.200 230.200 254.320 227.436 C 254.404 225.495,254.285 224.573,253.920 224.342 C 253.053 223.792,235.440 223.920,234.880 224.480 M117.863 225.274 C 122.212 227.152,123.105 228.634,121.122 230.681 C 119.636 232.213,119.286 232.264,117.275 231.238 C 110.931 228.002,104.564 231.823,104.622 238.831 C 104.678 245.661,110.991 249.286,117.380 246.157 L 119.510 245.114 120.944 246.657 C 123.117 248.995,122.698 249.877,118.489 251.824 C 107.538 256.887,95.371 245.806,99.234 234.287 C 101.781 226.692,110.913 222.274,117.863 225.274 M212.080 226.880 C 211.810 227.150,211.600 228.444,211.600 229.837 C 211.600 232.513,211.369 232.800,209.214 232.800 C 208.025 232.800,207.616 233.529,207.605 235.667 C 207.596 237.463,207.995 238.000,209.343 238.006 C 211.552 238.017,211.572 238.081,211.690 245.585 C 211.773 250.826,211.925 252.559,212.310 252.637 C 212.590 252.694,212.636 252.649,212.410 252.537 C 212.152 252.409,212.000 249.606,212.000 244.989 L 212.000 237.644 210.100 237.522 C 206.969 237.321,206.971 233.350,210.102 233.123 L 211.800 233.000 212.000 230.200 L 212.200 227.400 214.800 227.400 L 217.400 227.400 217.518 230.097 C 217.645 232.999,217.626 232.977,220.400 233.288 C 221.318 233.391,221.400 233.563,221.400 235.400 L 221.400 237.400 219.600 237.600 L 217.800 237.800 217.600 245.301 C 217.432 251.607,217.547 253.392,218.077 252.700 C 218.119 252.645,218.254 249.360,218.377 245.400 L 218.600 238.200 220.200 238.000 L 221.800 237.800 221.800 235.400 L 221.800 233.000 220.200 232.800 L 218.600 232.600 218.477 230.206 C 218.313 227.012,217.725 226.400,214.818 226.400 C 213.576 226.400,212.344 226.616,212.080 226.880 M133.706 232.597 C 127.125 234.124,123.714 241.263,126.625 247.416 C 129.716 253.951,138.666 255.493,143.598 250.342 C 150.959 242.653,144.019 230.203,133.706 232.597 M160.626 232.483 C 159.760 232.667,158.467 233.264,157.752 233.809 C 156.134 235.043,156.000 235.041,156.000 233.783 C 156.000 232.771,155.984 232.767,152.900 232.883 L 149.800 233.000 149.800 242.767 C 149.800 248.922,149.948 252.583,150.200 252.667 C 150.459 252.753,150.600 249.389,150.600 243.100 L 150.600 233.400 152.967 233.400 C 155.243 233.400,155.348 233.446,155.721 234.600 C 156.253 236.245,156.284 236.256,157.184 235.112 C 159.537 232.119,163.962 232.048,167.098 234.951 L 168.396 236.153 169.498 235.122 C 173.176 231.681,178.478 232.118,181.100 236.078 L 182.200 237.740 182.200 245.270 C 182.200 249.411,182.332 252.800,182.492 252.800 C 183.676 252.801,183.377 239.501,182.132 236.757 C 180.045 232.158,174.005 230.825,169.900 234.057 L 168.400 235.238 166.900 234.039 C 165.103 232.603,162.772 232.025,160.626 232.483 M192.200 233.002 C 185.838 235.255,183.664 244.526,188.295 249.653 C 192.039 253.796,199.419 254.421,203.285 250.923 C 205.037 249.338,202.551 246.225,200.290 247.173 C 197.281 248.436,193.214 247.738,192.872 245.900 C 192.752 245.259,193.242 245.200,198.691 245.200 C 205.584 245.200,205.600 245.192,205.600 241.907 C 205.600 235.023,198.957 230.609,192.200 233.002 M263.450 232.963 C 255.114 236.066,255.335 250.006,263.765 252.788 C 265.995 253.524,269.729 253.151,271.230 252.041 C 272.452 251.137,272.458 251.137,272.673 251.957 C 272.928 252.934,274.899 253.421,277.000 253.026 L 278.400 252.764 278.400 242.782 L 278.400 232.800 275.647 232.800 C 273.180 232.800,272.870 232.888,272.672 233.645 L 272.451 234.491 271.196 233.597 C 269.591 232.454,265.677 232.134,263.450 232.963 M139.354 233.292 C 143.321 234.476,146.906 240.035,146.217 243.934 C 144.026 256.330,126.299 255.501,126.265 243.000 C 126.245 235.773,132.393 231.213,139.354 233.292 M199.303 233.385 C 202.617 234.770,204.700 237.671,205.089 241.444 C 205.432 244.763,205.355 244.800,198.151 244.800 C 191.532 244.800,191.152 244.939,192.838 246.749 C 194.447 248.475,197.249 248.892,199.875 247.795 C 202.084 246.871,204.465 248.673,203.145 250.269 C 199.378 254.822,190.017 252.904,187.248 247.013 C 183.569 239.186,191.562 230.151,199.303 233.385 M269.720 233.448 C 270.424 233.805,271.316 234.374,271.702 234.712 C 272.089 235.051,272.449 235.255,272.502 235.164 C 272.556 235.074,272.800 234.640,273.044 234.200 C 273.402 233.554,273.902 233.400,275.644 233.400 L 277.800 233.400 277.908 242.772 C 278.026 253.074,278.095 252.783,275.529 252.794 C 274.142 252.800,273.057 252.172,272.724 251.172 C 272.631 250.894,271.850 251.115,270.629 251.764 C 264.726 254.903,257.600 250.085,257.600 242.955 C 257.600 236.288,264.555 230.833,269.720 233.448 M282.000 233.390 C 282.000 233.714,283.334 235.922,284.964 238.296 L 287.928 242.612 285.158 246.606 C 280.710 253.019,280.722 252.902,284.508 253.044 L 287.000 253.137 284.731 252.866 C 281.690 252.503,281.697 252.546,284.097 249.164 C 289.267 241.878,289.095 243.332,285.413 238.018 C 282.014 233.114,282.010 233.200,285.625 233.200 L 288.317 233.200 289.580 235.169 C 291.752 238.553,291.894 238.558,293.955 235.300 L 295.283 233.200 298.284 233.200 C 301.837 233.200,301.853 232.858,298.049 238.248 C 294.618 243.109,294.592 241.975,298.262 247.332 C 299.946 249.789,301.326 252.025,301.328 252.300 C 301.331 252.575,301.483 252.800,301.667 252.800 C 302.598 252.800,300.852 249.735,296.953 244.527 C 295.639 242.771,295.651 242.730,298.800 238.145 C 302.455 232.824,302.453 232.800,298.257 232.800 L 294.913 232.800 293.453 235.000 C 292.649 236.210,291.901 237.200,291.791 237.200 C 291.680 237.200,290.957 236.210,290.183 235.000 L 288.775 232.800 285.388 232.800 C 282.669 232.800,282.000 232.916,282.000 233.390 M193.800 238.083 C 190.496 239.978,191.358 241.200,196.000 241.200 C 199.970 241.200,200.000 241.193,200.000 240.227 C 200.000 238.197,196.008 236.817,193.800 238.083 M133.257 239.013 C 130.444 241.380,130.880 245.608,134.105 247.254 C 138.394 249.442,142.590 244.341,139.998 240.090 C 138.594 237.786,135.334 237.266,133.257 239.013 M157.169 239.169 L 156.000 240.338 156.000 246.089 C 156.000 250.141,155.852 251.997,155.500 252.370 C 155.096 252.798,155.116 252.865,155.600 252.718 C 156.087 252.570,156.238 251.389,156.400 246.432 C 156.622 239.668,157.183 238.400,159.953 238.400 C 162.463 238.400,162.985 239.748,163.128 246.592 C 163.270 253.442,163.145 253.189,166.400 253.189 C 169.719 253.189,169.600 253.430,169.600 246.723 L 169.600 240.738 170.769 239.569 C 172.151 238.187,173.858 238.033,175.256 239.164 C 176.158 239.894,176.209 240.206,176.400 246.232 C 176.548 250.892,176.733 252.562,177.110 252.638 C 177.391 252.694,177.436 252.649,177.210 252.537 C 176.957 252.411,176.800 249.998,176.800 246.225 C 176.800 240.296,176.771 240.086,175.819 239.058 C 174.395 237.522,171.967 237.571,170.369 239.169 L 169.200 240.338 169.200 246.089 C 169.200 252.617,169.123 252.803,166.420 252.794 C 163.658 252.785,163.692 252.866,163.539 246.065 L 163.400 239.930 162.278 238.965 C 160.672 237.585,158.674 237.665,157.169 239.169 M198.896 239.219 C 200.043 240.636,199.765 240.800,196.224 240.800 C 192.335 240.800,191.900 240.492,193.679 238.995 C 195.242 237.680,197.736 237.787,198.896 239.219 M265.130 238.685 C 261.891 240.694,262.676 246.437,266.339 247.535 C 270.186 248.687,273.264 245.260,272.042 241.183 C 271.171 238.274,267.772 237.046,265.130 238.685 M138.678 239.264 C 139.746 240.150,140.453 242.312,140.169 243.823 C 139.482 247.488,134.252 248.395,132.570 245.142 C 130.427 240.998,135.214 236.391,138.678 239.264 M270.410 239.549 C 271.722 240.861,272.205 242.330,271.823 243.851 C 270.866 247.663,265.804 248.363,264.047 244.926 C 261.905 240.738,267.159 236.298,270.410 239.549 M290.232 249.101 C 289.590 250.145,288.704 251.405,288.263 251.900 C 287.647 252.591,287.596 252.800,288.046 252.800 C 288.368 252.800,289.234 251.805,289.971 250.589 C 291.762 247.635,291.724 247.637,293.581 250.372 C 295.325 252.940,296.367 253.442,299.227 253.095 C 300.241 252.972,300.043 252.911,298.469 252.864 C 296.130 252.794,295.308 252.180,293.104 248.854 C 291.732 246.784,291.653 246.790,290.232 249.101 M152.300 253.082 C 152.795 253.178,153.605 253.178,154.100 253.082 C 154.595 252.987,154.190 252.909,153.200 252.909 C 152.210 252.909,151.805 252.987,152.300 253.082 M178.700 253.082 C 179.195 253.178,180.005 253.178,180.500 253.082 C 180.995 252.987,180.590 252.909,179.600 252.909 C 178.610 252.909,178.205 252.987,178.700 253.082 M213.900 253.082 C 214.395 253.178,215.205 253.178,215.700 253.082 C 216.195 252.987,215.790 252.909,214.800 252.909 C 213.810 252.909,213.405 252.987,213.900 253.082 " stroke="none" fill="#764c53" fill-rule="evenodd"></path><path id="path4" d="M61.500 277.476 C 60.370 277.771,60.439 291.779,61.574 292.386 C 66.393 294.965,72.785 289.540,69.639 285.541 C 68.969 284.689,68.944 284.457,69.425 283.587 C 71.656 279.558,67.069 276.020,61.500 277.476 M91.768 277.744 C 88.060 279.430,88.971 284.490,93.265 286.056 C 95.613 286.912,95.640 286.939,95.521 288.361 L 95.400 289.800 92.800 290.000 C 89.629 290.244,88.840 291.870,91.600 292.474 C 98.766 294.041,101.470 286.106,94.600 283.671 C 92.723 283.006,92.600 282.877,92.600 281.581 L 92.600 280.200 94.996 280.000 C 97.422 279.798,98.038 279.280,97.269 278.089 C 96.767 277.312,93.210 277.089,91.768 277.744 M127.829 277.829 C 127.103 278.554,126.897 290.901,127.592 292.000 C 128.165 292.907,133.484 292.830,134.912 291.894 C 137.481 290.211,138.471 283.488,136.654 280.069 C 135.366 277.643,129.502 276.155,127.829 277.829 M180.400 277.643 C 176.446 279.194,177.194 284.426,181.599 286.032 C 185.744 287.543,185.348 290.000,180.959 290.000 C 177.791 290.000,177.078 291.841,180.000 292.476 C 187.169 294.033,189.912 286.214,183.090 283.669 C 181.139 282.941,181.000 282.800,181.000 281.545 L 181.000 280.200 183.264 280.081 C 185.552 279.961,186.229 279.463,185.762 278.245 C 185.389 277.273,182.243 276.920,180.400 277.643 M214.508 277.772 C 211.186 279.270,210.228 288.416,213.093 291.279 C 215.511 293.694,220.146 292.862,221.433 289.782 C 222.125 288.126,222.152 282.364,221.477 280.437 C 220.566 277.835,217.212 276.553,214.508 277.772 M225.829 277.829 C 224.935 278.722,224.893 291.247,225.781 291.984 C 227.132 293.105,227.790 292.339,228.000 289.396 C 228.276 285.538,229.142 285.539,231.411 289.400 C 234.150 294.058,236.713 293.613,234.155 288.923 L 232.643 286.152 233.722 284.738 C 235.814 281.995,234.809 278.484,231.682 277.616 C 229.440 276.993,226.559 277.098,225.829 277.829 M245.200 277.643 C 241.246 279.194,241.994 284.426,246.399 286.032 C 250.544 287.543,250.148 290.000,245.759 290.000 C 242.591 290.000,241.878 291.841,244.800 292.476 C 251.969 294.033,254.712 286.214,247.890 283.669 C 245.939 282.941,245.800 282.800,245.800 281.545 L 245.800 280.200 248.064 280.081 C 250.352 279.961,251.029 279.463,250.562 278.245 C 250.189 277.273,247.043 276.920,245.200 277.643 M281.029 277.829 C 280.303 278.554,280.097 290.902,280.792 292.000 C 281.424 292.998,286.834 292.827,288.271 291.764 C 290.688 289.975,291.603 283.272,289.868 280.069 C 288.553 277.641,282.700 276.158,281.029 277.829 M333.368 277.744 C 329.660 279.430,330.571 284.490,334.865 286.056 C 337.213 286.912,337.240 286.939,337.121 288.361 L 337.000 289.800 334.400 290.000 C 331.229 290.244,330.440 291.870,333.200 292.474 C 340.366 294.041,343.070 286.106,336.200 283.671 C 334.323 283.006,334.200 282.877,334.200 281.581 L 334.200 280.200 336.596 280.000 C 339.022 279.798,339.638 279.280,338.869 278.089 C 338.367 277.312,334.810 277.089,333.368 277.744 M72.400 278.335 C 72.400 278.739,73.207 280.854,74.194 283.035 C 75.696 286.357,75.988 287.404,75.994 289.492 C 76.000 291.799,76.073 292.003,76.977 292.230 C 78.483 292.608,78.800 292.148,78.800 289.585 C 78.800 287.646,79.126 286.480,80.600 283.157 C 82.758 278.289,82.838 277.600,81.245 277.600 C 80.196 277.600,79.987 277.848,78.973 280.300 C 77.442 284.001,77.445 284.000,76.215 280.927 C 75.046 278.007,74.702 277.616,73.300 277.606 C 72.691 277.602,72.400 277.838,72.400 278.335 M100.605 278.385 C 100.212 279.622,100.684 280.000,102.624 280.000 L 104.400 280.000 104.400 285.976 C 104.400 292.264,104.514 292.659,106.212 292.233 C 107.173 291.992,107.179 291.955,107.289 286.095 L 107.400 280.200 109.200 280.000 C 110.800 279.822,111.000 279.689,111.000 278.800 L 111.000 277.800 105.931 277.688 C 101.145 277.583,100.847 277.622,100.605 278.385 M114.003 278.197 C 113.110 279.273,113.627 289.308,114.647 290.685 C 116.544 293.250,121.246 293.246,122.823 290.680 C 123.524 289.538,123.597 288.775,123.504 283.600 L 123.400 277.800 122.400 277.800 L 121.400 277.800 121.200 283.240 C 120.980 289.235,120.696 290.000,118.695 290.000 C 116.730 290.000,116.427 289.168,116.413 283.733 C 116.397 277.645,115.730 276.115,114.003 278.197 M140.977 278.115 C 140.869 278.398,140.829 281.683,140.890 285.415 L 141.000 292.200 144.639 292.314 C 147.524 292.405,148.384 292.301,148.788 291.814 C 149.708 290.706,148.603 290.000,145.951 290.000 L 143.600 290.000 143.600 288.020 L 143.600 286.040 145.900 285.920 C 148.055 285.808,148.200 285.737,148.200 284.800 C 148.200 283.863,148.055 283.792,145.900 283.680 L 143.600 283.560 143.600 281.780 L 143.600 280.000 146.167 280.000 C 148.803 280.000,149.256 279.717,148.888 278.300 C 148.655 277.402,141.317 277.230,140.977 278.115 M152.643 278.233 C 152.027 279.838,152.384 292.019,153.054 292.276 C 154.550 292.850,154.991 291.898,155.200 287.647 L 155.400 283.578 156.960 287.590 C 158.729 292.139,159.031 292.504,160.874 292.327 L 162.200 292.200 162.200 285.000 L 162.200 277.800 161.100 277.673 C 159.766 277.520,159.946 276.959,159.649 282.200 C 159.402 286.564,159.395 286.587,158.852 285.000 C 156.725 278.782,156.014 277.600,154.405 277.600 C 153.389 277.600,152.805 277.809,152.643 278.233 M165.405 278.385 C 165.012 279.622,165.484 280.000,167.424 280.000 L 169.200 280.000 169.200 285.976 C 169.200 292.264,169.314 292.659,171.012 292.233 C 171.973 291.992,171.979 291.955,172.089 286.095 L 172.200 280.200 174.000 280.000 C 175.600 279.822,175.800 279.689,175.800 278.800 L 175.800 277.800 170.731 277.688 C 165.945 277.583,165.647 277.622,165.405 278.385 M201.067 277.867 C 200.413 278.520,200.777 292.016,201.454 292.276 C 202.820 292.800,203.394 291.854,203.517 288.879 L 203.634 286.042 205.517 285.921 C 208.395 285.736,208.381 283.863,205.500 283.678 L 203.600 283.556 203.600 281.778 L 203.600 280.000 206.167 280.000 C 208.803 280.000,209.256 279.717,208.888 278.300 C 208.702 277.583,201.736 277.197,201.067 277.867 M253.512 278.300 C 253.174 279.601,253.623 280.000,255.423 280.000 L 257.179 280.000 257.289 285.857 C 257.385 290.926,257.494 291.773,258.100 292.155 C 259.817 293.237,260.191 292.170,260.311 285.857 L 260.421 280.000 262.211 280.000 C 263.932 280.000,264.000 279.954,264.000 278.800 L 264.000 277.600 258.847 277.600 C 254.275 277.600,253.673 277.679,253.512 278.300 M266.980 278.535 C 266.368 280.975,266.969 289.503,267.836 290.672 C 269.745 293.249,274.442 293.253,276.023 290.680 C 276.724 289.538,276.797 288.775,276.704 283.600 L 276.600 277.800 275.552 277.678 C 274.169 277.518,274.012 278.181,274.005 284.220 C 273.999 289.533,273.817 290.000,271.744 290.000 C 269.927 290.000,269.824 289.685,269.600 283.400 L 269.400 277.800 268.314 277.675 C 267.443 277.574,267.179 277.745,266.980 278.535 M294.197 278.485 C 294.073 278.988,294.023 282.280,294.086 285.800 L 294.200 292.200 298.000 292.200 C 301.787 292.200,301.800 292.196,301.800 291.200 C 301.800 290.252,301.670 290.194,299.279 290.080 L 296.758 289.961 296.879 288.080 L 297.000 286.200 299.191 286.076 C 303.022 285.859,302.813 283.600,298.963 283.600 L 296.754 283.600 296.877 281.900 L 297.000 280.200 299.525 280.080 C 302.007 279.963,302.047 279.942,301.925 278.880 C 301.743 277.302,294.579 276.936,294.197 278.485 M305.867 277.867 C 305.213 278.520,305.577 292.016,306.254 292.276 C 307.758 292.853,308.191 291.902,308.400 287.567 L 308.600 283.419 310.159 287.409 C 312.086 292.342,312.185 292.470,313.966 292.320 L 315.400 292.200 315.514 285.800 C 315.644 278.543,315.517 277.600,314.406 277.600 C 313.188 277.600,312.802 278.852,312.780 282.874 L 312.760 286.600 311.144 282.600 C 309.162 277.691,307.517 276.216,305.867 277.867 M318.312 278.300 C 317.974 279.601,318.423 280.000,320.223 280.000 L 321.979 280.000 322.089 285.857 C 322.185 290.926,322.294 291.773,322.900 292.155 C 324.617 293.237,324.991 292.170,325.111 285.857 L 325.221 280.000 327.011 280.000 C 328.732 280.000,328.800 279.954,328.800 278.800 L 328.800 277.600 323.647 277.600 C 319.075 277.600,318.473 277.679,318.312 278.300 M67.588 278.512 C 69.659 279.559,70.140 282.203,68.550 283.793 C 67.951 284.392,67.974 284.521,68.850 285.453 C 71.778 288.570,69.377 292.103,64.459 291.916 L 61.400 291.800 61.285 285.800 C 61.131 277.726,61.032 277.999,64.108 278.006 C 65.478 278.009,67.045 278.237,67.588 278.512 M75.984 281.760 C 77.314 285.116,77.586 285.180,78.713 282.400 C 80.074 279.044,80.477 278.400,81.219 278.400 C 81.648 278.400,82.000 278.467,82.000 278.549 C 82.000 278.732,80.601 281.958,79.462 284.400 C 78.986 285.421,78.532 287.410,78.412 288.996 C 78.128 292.738,76.800 293.465,76.800 289.878 C 76.800 288.679,76.511 287.001,76.159 286.149 C 75.318 284.120,74.066 281.294,73.356 279.827 C 72.903 278.891,72.891 278.591,73.294 278.342 C 74.049 277.875,74.846 278.887,75.984 281.760 M96.600 278.792 C 96.600 279.235,96.197 279.356,95.000 279.271 C 93.152 279.141,92.150 279.760,91.790 281.255 C 91.519 282.381,92.775 284.000,93.921 284.000 C 97.449 284.000,99.419 289.516,96.560 291.389 C 95.167 292.302,90.665 292.101,90.478 291.118 C 90.366 290.530,90.686 290.446,92.816 290.505 C 97.332 290.630,97.942 286.819,93.600 285.610 C 88.157 284.094,88.994 277.805,94.600 278.096 C 96.053 278.172,96.600 278.362,96.600 278.792 M110.325 278.900 C 110.434 279.469,110.169 279.600,108.909 279.600 C 106.507 279.600,106.400 279.885,106.400 286.309 C 106.400 291.569,106.340 292.047,105.700 291.924 C 105.076 291.804,104.988 291.131,104.890 285.716 L 104.779 279.643 102.921 279.521 C 101.040 279.399,100.151 278.629,101.478 278.273 C 103.512 277.728,110.191 278.201,110.325 278.900 M116.000 283.632 C 116.229 289.784,116.476 290.459,118.519 290.517 C 121.227 290.593,121.562 289.866,121.689 283.648 C 121.781 279.121,121.901 278.200,122.400 278.200 C 123.186 278.200,123.489 287.937,122.757 289.703 C 121.655 292.365,117.311 292.998,115.436 290.769 C 113.893 288.936,113.839 277.615,115.375 278.124 C 115.633 278.210,115.879 280.372,116.000 283.632 M134.174 278.390 C 137.191 279.537,138.059 287.808,135.453 290.572 C 134.137 291.967,134.035 292.000,131.053 292.000 L 128.000 292.000 128.000 285.000 L 128.000 278.000 130.574 278.000 C 131.990 278.000,133.610 278.176,134.174 278.390 M147.951 278.361 C 149.014 279.034,147.933 279.600,145.584 279.600 C 141.478 279.600,141.305 283.659,145.396 284.000 C 148.958 284.297,149.162 285.600,145.647 285.600 L 143.236 285.600 142.974 286.997 C 142.435 289.871,142.880 290.400,145.837 290.400 C 148.119 290.400,148.441 290.491,148.324 291.100 C 148.208 291.701,147.709 291.800,144.795 291.800 L 141.400 291.800 141.290 285.454 C 141.214 281.113,141.324 278.932,141.639 278.554 C 142.159 277.926,147.030 277.778,147.951 278.361 M155.030 278.234 C 155.534 278.369,156.054 279.034,156.356 279.928 C 156.629 280.738,157.004 281.760,157.189 282.200 C 157.374 282.640,157.831 283.810,158.205 284.800 C 159.699 288.758,159.619 288.616,160.017 287.986 C 160.221 287.664,160.391 285.362,160.394 282.871 C 160.399 278.774,160.467 278.354,161.100 278.476 C 161.733 278.598,161.800 279.243,161.800 285.205 L 161.800 291.800 160.554 291.921 C 159.336 292.040,159.278 291.967,158.015 288.721 C 157.305 286.895,156.576 285.040,156.395 284.600 C 156.215 284.160,155.834 283.228,155.549 282.529 C 154.676 280.388,154.400 281.425,154.400 286.853 C 154.400 291.595,154.338 292.047,153.700 291.924 C 153.074 291.804,152.988 291.117,152.889 285.411 C 152.754 277.573,152.740 277.619,155.030 278.234 M175.125 278.900 C 175.234 279.469,174.969 279.600,173.709 279.600 C 171.307 279.600,171.200 279.885,171.200 286.309 C 171.200 291.569,171.140 292.047,170.500 291.924 C 169.876 291.804,169.788 291.131,169.690 285.716 L 169.579 279.643 167.721 279.521 C 165.840 279.399,164.951 278.629,166.278 278.273 C 168.312 277.728,174.991 278.201,175.125 278.900 M185.102 278.700 C 185.217 279.049,184.739 279.200,183.522 279.200 C 181.153 279.200,179.919 280.105,180.078 281.726 C 180.204 283.012,180.694 283.396,183.548 284.443 C 188.605 286.297,187.099 292.159,181.629 291.917 C 178.062 291.758,177.769 290.619,181.281 290.565 C 185.895 290.493,186.275 286.785,181.796 285.548 C 178.021 284.506,177.065 279.525,180.400 278.271 C 181.482 277.863,184.930 278.178,185.102 278.700 M207.951 278.361 C 209.014 279.034,207.933 279.600,205.584 279.600 C 202.982 279.600,202.573 280.060,202.869 282.652 C 202.990 283.713,203.151 283.815,205.000 284.000 C 207.720 284.272,207.820 285.347,205.141 285.520 C 202.993 285.659,202.814 285.981,202.805 289.729 C 202.801 291.731,202.701 292.040,202.100 291.924 C 201.230 291.757,200.809 279.553,201.639 278.554 C 202.159 277.926,207.030 277.778,207.951 278.361 M220.124 279.146 C 221.523 280.545,221.452 289.454,220.030 290.968 C 218.819 292.257,215.153 292.447,213.777 291.291 C 211.169 289.101,211.296 280.358,213.960 278.643 C 215.450 277.685,218.948 277.970,220.124 279.146 M233.439 279.327 C 234.788 280.895,234.698 282.656,233.176 284.503 L 231.952 285.988 233.214 288.294 C 233.908 289.562,234.659 290.823,234.883 291.095 C 235.173 291.448,235.102 291.663,234.640 291.840 C 233.736 292.187,233.129 291.577,231.772 288.961 C 229.491 284.562,227.696 284.550,227.517 288.932 C 227.421 291.282,227.275 291.815,226.700 291.925 C 226.055 292.048,226.000 291.506,226.000 284.987 L 226.000 277.915 229.239 278.062 C 232.200 278.197,232.560 278.305,233.439 279.327 M249.902 278.700 C 250.017 279.049,249.539 279.200,248.322 279.200 C 245.953 279.200,244.719 280.105,244.878 281.726 C 245.004 283.012,245.494 283.396,248.348 284.443 C 253.405 286.297,251.899 292.159,246.429 291.917 C 242.862 291.758,242.569 290.619,246.081 290.565 C 250.695 290.493,251.075 286.785,246.596 285.548 C 242.821 284.506,241.865 279.525,245.200 278.271 C 246.282 277.863,249.730 278.178,249.902 278.700 M263.197 278.389 C 264.081 278.949,263.275 279.525,261.400 279.673 L 259.800 279.800 259.600 285.800 C 259.434 290.778,259.298 291.800,258.800 291.800 C 258.302 291.800,258.166 290.778,258.000 285.800 L 257.800 279.800 256.200 279.673 C 254.325 279.525,253.519 278.949,254.403 278.389 C 255.179 277.899,262.421 277.899,263.197 278.389 M288.694 279.311 C 289.775 280.392,289.800 280.524,289.800 285.041 L 289.800 289.664 288.494 290.832 C 287.297 291.902,286.937 292.000,284.194 292.000 L 281.200 292.000 281.200 284.958 L 281.200 277.915 284.394 278.060 C 287.250 278.190,287.704 278.322,288.694 279.311 M301.400 278.800 C 301.400 279.251,300.756 279.450,298.800 279.600 L 296.200 279.800 296.080 281.880 L 295.960 283.961 298.480 284.080 C 301.995 284.247,302.079 285.310,298.600 285.600 L 296.200 285.800 296.200 288.000 L 296.200 290.200 298.900 290.318 C 301.291 290.423,301.600 290.528,301.600 291.234 C 301.600 291.978,301.368 292.023,298.100 291.916 L 294.600 291.800 294.489 285.416 C 294.429 281.905,294.471 278.793,294.583 278.500 C 294.896 277.685,301.400 277.971,301.400 278.800 M308.714 278.500 C 308.941 278.775,309.794 280.710,310.610 282.800 C 312.828 288.479,312.971 288.800,313.286 288.800 C 313.446 288.800,313.627 286.415,313.688 283.500 C 313.781 279.105,313.902 278.200,314.400 278.200 C 314.910 278.200,315.000 279.222,315.000 285.000 L 315.000 291.800 313.966 291.920 C 312.518 292.088,312.311 291.711,308.734 282.414 C 308.028 280.580,307.613 282.392,307.606 287.329 C 307.601 291.616,307.535 292.046,306.900 291.924 C 306.030 291.757,305.609 279.553,306.439 278.554 C 307.011 277.864,308.168 277.837,308.714 278.500 M327.997 278.389 C 328.881 278.949,328.075 279.525,326.200 279.673 L 324.600 279.800 324.400 285.800 C 324.234 290.778,324.098 291.800,323.600 291.800 C 323.102 291.800,322.966 290.778,322.800 285.800 L 322.600 279.800 321.000 279.673 C 319.125 279.525,318.319 278.949,319.203 278.389 C 319.979 277.899,327.221 277.899,327.997 278.389 M338.200 278.792 C 338.200 279.235,337.797 279.356,336.600 279.271 C 334.752 279.141,333.750 279.760,333.390 281.255 C 333.119 282.381,334.375 284.000,335.521 284.000 C 339.049 284.000,341.019 289.516,338.160 291.389 C 336.767 292.302,332.265 292.101,332.078 291.118 C 331.966 290.530,332.286 290.446,334.416 290.505 C 338.932 290.630,339.542 286.819,335.200 285.610 C 329.757 284.094,330.594 277.805,336.200 278.096 C 337.653 278.172,338.200 278.362,338.200 278.792 M269.200 284.085 C 269.420 290.100,269.561 290.455,271.765 290.518 C 274.290 290.589,274.582 289.928,274.731 283.787 C 274.855 278.695,274.906 278.400,275.668 278.400 C 277.145 278.400,276.616 289.712,275.078 291.035 C 273.431 292.450,270.131 292.416,268.770 290.969 C 267.434 289.549,266.981 278.223,268.270 278.469 C 268.922 278.594,269.021 279.191,269.200 284.085 M62.988 280.526 C 62.466 283.306,62.767 283.800,64.985 283.800 C 68.990 283.800,68.894 279.577,64.882 279.278 C 63.302 279.160,63.235 279.204,62.988 280.526 M129.600 284.813 C 129.600 291.037,129.632 291.108,132.205 290.626 C 134.673 290.162,135.202 289.170,135.187 285.025 C 135.171 280.418,134.301 279.200,131.026 279.200 L 129.600 279.200 129.600 284.813 M215.165 279.713 C 212.825 281.509,213.037 289.502,215.449 290.419 C 218.424 291.550,219.603 290.031,219.595 285.074 C 219.586 279.847,217.802 277.688,215.165 279.713 M227.867 279.467 C 227.336 279.997,227.587 283.891,228.184 284.386 C 229.522 285.497,232.800 283.656,232.800 281.794 C 232.800 280.016,229.075 278.259,227.867 279.467 M283.067 279.467 C 282.300 280.233,282.793 290.344,283.609 290.603 C 286.671 291.575,288.168 289.907,288.338 285.337 C 288.475 281.652,288.465 281.603,287.269 280.408 C 286.108 279.247,283.803 278.730,283.067 279.467 M66.698 280.481 C 68.077 281.626,66.951 283.600,64.920 283.600 C 63.630 283.600,63.600 283.561,63.600 281.867 C 63.600 279.515,64.856 278.953,66.698 280.481 M132.685 280.020 C 136.268 281.269,135.593 289.683,131.890 289.922 L 130.000 290.044 130.000 284.822 C 130.000 279.041,129.980 279.077,132.685 280.020 M231.697 280.260 C 232.384 280.685,232.001 283.171,231.180 283.611 C 228.926 284.817,227.481 283.320,228.187 280.511 C 228.425 279.561,230.344 279.424,231.697 280.260 M286.183 280.167 C 287.763 280.827,288.277 282.800,287.878 286.669 C 287.588 289.473,287.125 290.000,284.951 290.000 L 283.200 290.000 283.200 285.433 C 283.200 279.220,283.337 278.978,286.183 280.167 M218.400 280.391 C 219.147 280.863,219.479 287.242,218.842 288.900 C 218.302 290.306,215.513 290.532,214.814 289.226 C 214.123 287.936,214.287 281.370,215.029 280.629 C 215.727 279.930,217.476 279.807,218.400 280.391 M62.978 286.545 C 62.254 289.428,63.332 291.094,65.635 290.651 C 69.722 289.865,69.193 285.600,65.008 285.600 C 63.457 285.600,63.183 285.728,62.978 286.545 M66.598 286.399 C 68.687 287.193,67.884 289.769,65.500 289.922 L 63.600 290.044 63.600 288.022 C 63.600 285.800,64.187 285.482,66.598 286.399 M189.829 289.829 C 189.151 290.506,189.020 291.283,189.500 291.773 C 189.665 291.941,189.800 292.916,189.800 293.939 C 189.800 296.247,190.671 296.459,191.699 294.400 C 193.295 291.207,191.888 287.769,189.829 289.829 M192.000 291.049 C 192.000 292.399,191.073 295.224,190.673 295.091 C 190.182 294.927,190.041 290.244,190.518 289.937 C 191.234 289.477,192.000 290.052,192.000 291.049 " stroke="none" fill="#64828c" fill-rule="evenodd"></path></g></svg>